<mxfile host="app.diagrams.net" agent="Mozilla/5.0 (Macintosh; Intel Mac OS X 10_15_7) AppleWebKit/537.36 (KHTML, like Gecko) Chrome/129.0.0.0 Safari/537.36" version="24.8.0">
  <diagram name="第 1 页" id="Glv1WMQVIylYb3ymfA4j">
    <mxGraphModel dx="1026" dy="650" grid="1" gridSize="10" guides="1" tooltips="1" connect="1" arrows="1" fold="1" page="1" pageScale="1" pageWidth="827" pageHeight="1169" math="0" shadow="0">
      <root>
        <mxCell id="0" />
        <mxCell id="1" parent="0" />
        <mxCell id="8_4kArAfokRUc3SaRiv0-3" value="" style="edgeStyle=orthogonalEdgeStyle;rounded=0;orthogonalLoop=1;jettySize=auto;html=1;" edge="1" parent="1" source="8_4kArAfokRUc3SaRiv0-1" target="8_4kArAfokRUc3SaRiv0-2">
          <mxGeometry relative="1" as="geometry" />
        </mxCell>
        <mxCell id="8_4kArAfokRUc3SaRiv0-1" value="导入标签" style="ellipse;whiteSpace=wrap;html=1;" vertex="1" parent="1">
          <mxGeometry x="340" y="180" width="100" height="60" as="geometry" />
        </mxCell>
        <mxCell id="8_4kArAfokRUc3SaRiv0-5" value="" style="edgeStyle=orthogonalEdgeStyle;rounded=0;orthogonalLoop=1;jettySize=auto;html=1;" edge="1" parent="1" source="8_4kArAfokRUc3SaRiv0-2" target="8_4kArAfokRUc3SaRiv0-4">
          <mxGeometry relative="1" as="geometry" />
        </mxCell>
        <mxCell id="8_4kArAfokRUc3SaRiv0-2" value="校验表是否存在" style="rhombus;whiteSpace=wrap;html=1;" vertex="1" parent="1">
          <mxGeometry x="335" y="310" width="110" height="60" as="geometry" />
        </mxCell>
        <mxCell id="8_4kArAfokRUc3SaRiv0-7" value="" style="edgeStyle=orthogonalEdgeStyle;rounded=0;orthogonalLoop=1;jettySize=auto;html=1;" edge="1" parent="1" source="8_4kArAfokRUc3SaRiv0-4" target="8_4kArAfokRUc3SaRiv0-6">
          <mxGeometry relative="1" as="geometry" />
        </mxCell>
        <mxCell id="8_4kArAfokRUc3SaRiv0-4" value="校验标签是否存在" style="rhombus;whiteSpace=wrap;html=1;" vertex="1" parent="1">
          <mxGeometry x="330" y="420" width="120" height="50" as="geometry" />
        </mxCell>
        <mxCell id="8_4kArAfokRUc3SaRiv0-9" value="" style="edgeStyle=orthogonalEdgeStyle;rounded=0;orthogonalLoop=1;jettySize=auto;html=1;" edge="1" parent="1" source="8_4kArAfokRUc3SaRiv0-6" target="8_4kArAfokRUc3SaRiv0-8">
          <mxGeometry relative="1" as="geometry" />
        </mxCell>
        <mxCell id="8_4kArAfokRUc3SaRiv0-6" value="校验值类型是否匹配" style="rhombus;whiteSpace=wrap;html=1;" vertex="1" parent="1">
          <mxGeometry x="320" y="519.5" width="140" height="65" as="geometry" />
        </mxCell>
        <mxCell id="8_4kArAfokRUc3SaRiv0-11" value="" style="edgeStyle=orthogonalEdgeStyle;rounded=0;orthogonalLoop=1;jettySize=auto;html=1;" edge="1" parent="1" source="8_4kArAfokRUc3SaRiv0-8" target="8_4kArAfokRUc3SaRiv0-10">
          <mxGeometry relative="1" as="geometry" />
        </mxCell>
        <mxCell id="8_4kArAfokRUc3SaRiv0-8" value="写入标签基础信息表" style="shape=process;whiteSpace=wrap;html=1;backgroundOutline=1;" vertex="1" parent="1">
          <mxGeometry x="315" y="650" width="150" height="60" as="geometry" />
        </mxCell>
        <mxCell id="8_4kArAfokRUc3SaRiv0-13" value="" style="edgeStyle=orthogonalEdgeStyle;rounded=0;orthogonalLoop=1;jettySize=auto;html=1;" edge="1" parent="1" source="8_4kArAfokRUc3SaRiv0-10" target="8_4kArAfokRUc3SaRiv0-12">
          <mxGeometry relative="1" as="geometry" />
        </mxCell>
        <mxCell id="8_4kArAfokRUc3SaRiv0-10" value="写入标签修改表" style="shape=process;whiteSpace=wrap;html=1;backgroundOutline=1;" vertex="1" parent="1">
          <mxGeometry x="330" y="790" width="120" height="60" as="geometry" />
        </mxCell>
        <mxCell id="8_4kArAfokRUc3SaRiv0-12" value="写入标签评审表" style="shape=process;whiteSpace=wrap;html=1;backgroundOutline=1;" vertex="1" parent="1">
          <mxGeometry x="330" y="910" width="120" height="40" as="geometry" />
        </mxCell>
      </root>
    </mxGraphModel>
  </diagram>
</mxfile>
